# xmcd CD database file
#
# Track frame offsets:
#	150
#	16475
#	33480
#	49189
#	68002
#	83667
#	101205
#	116917
#	131859
#	148414
#	167198
#	185391
#	202442
#	218971
#	234019
#	256208
#	273299
#	289298
#	308706
#	326623
#
# Disc length: 4566 seconds
#
# Revision: 0
# Processed by: cddbd v1.5.2PL0 Copyright (c) Steve Scherf et al.
# Submitted via: CDex 1.70beta2
#
DISCID=3911d414
DTITLE=Various Artist - Herzflimmern CD 1
DYEAR=2001
DGENRE=New Age
TTITLE0=Die 3. Generation - Du bist der Sommer
TTITLE1=Atemlos - Schlaflos
TTITLE2=Blümchen - Ich vermisse Dich
TTITLE3=Matthias Carras - Nur mit Dir
TTITLE4=IBO - Hello
TTITLE5=Bianca Graf - Ich halte zu Dir
TTITLE6=Münchner Freiheit - Solange
TTITLE7=UHF - Lass es nicht vorbei sein
TTITLE8=Laura - Immer wieder
TTITLE9=Matthias Reim - Im Himmel geht es weiter
TTITLE10=Michael Morgan - Komm zurück zu mir
TTITLE11=Superbooy - Ich wünscht ' Du wärst bei mir
TTITLE12=Kami and Purple Schulz - Ich will raus
TTITLE13=Yasmin Allain - Wo auch immer Du bist
TTITLE14=Hansi Süssenbach - Tagelang
TTITLE15=Olaf Henning - Du bist mein Traum
TTITLE16=Angelika Milster - Ich will, daß Du für immer bleibst
TTITLE17=Roland Kaiser - Wenn Du mich brauchst, bin ich für Dich da
TTITLE18=Christian Theiner - Heimliche Sehnsucht
TTITLE19=Thomas Rothfuß - Ein Traum der Liebe
EXTD=YEAR: 2001
EXTT0=
EXTT1=
EXTT2=
EXTT3=
EXTT4=
EXTT5=
EXTT6=
EXTT7=
EXTT8=
EXTT9=
EXTT10=
EXTT11=
EXTT12=
EXTT13=
EXTT14=
EXTT15=
EXTT16=
EXTT17=
EXTT18=
EXTT19=
PLAYORDER=
